<?xml version="1.0" encoding="UTF-8"?>
<svg id="Layer_2" data-name="Layer 2" xmlns="http://www.w3.org/2000/svg" viewBox="0 0 130.21 251.8">
  <defs>
    <style>
      .cls-1 {
        fill: #fdd01f;
      }

      .cls-2 {
        fill: #e34d4c;
      }

      .cls-3 {
        fill: #84d0d9;
      }

      .cls-4 {
        fill: #fff;
      }

      .cls-5 {
        fill: #622599;
      }

      .cls-6 {
        fill: #009db3;
      }

      .cls-7 {
        fill: #c97e29;
      }

      .cls-8 {
        fill: #3f1d57;
      }

      .cls-9 {
        fill: #a81f24;
      }

      .cls-10 {
        fill: #f08921;
      }

      .cls-11 {
        fill: #4bc2e8;
      }

      .cls-12 {
        fill: #fcb813;
      }

      .cls-13 {
        fill: #2476b8;
      }

      .cls-14 {
        fill: #fac49e;
      }

      .cls-15 {
        fill: #96d2dc;
      }

      .cls-16 {
        fill: #f15857;
      }

      .cls-17 {
        fill: #0094b4;
      }

      .cls-18 {
        fill: #ffc30c;
      }

      .cls-19 {
        fill: #c72528;
      }

      .cls-20 {
        fill: #fbe056;
      }

      .cls-21 {
        fill: #2675b7;
      }
    </style>
  </defs>
  <g id="Layer_1-2" data-name="Layer 1">
    <g>
      <path class="cls-19" d="M125.56,29.54c0-16.31-13.21-29.54-29.51-29.54s-29.51,13.22-29.51,29.54h59.02Z"/>
      <path class="cls-9" d="M11.95,240.04c5.49-9.6,11.94-24.3,17.76-41.17,10.68-30.94,15.21-57.45,10.11-59.21L1.14,251.71c2.32.8,6.23-3.66,10.81-11.67"/>
      <path class="cls-3" d="M32.66,174.79c5.12-6.24,10.17-16.19,13.71-27.92,6.5-21.51,5.48-40.84-2.29-43.19l-23.55,77.88c3.53,1.07,7.85-1.56,12.12-6.77"/>
      <path class="cls-2" d="M31.48,215.4c4.02-6.7,8.27-17.04,11.62-28.95,6.14-21.86,6.91-40.77,1.72-42.23l-22.25,79.17c2.36.66,5.55-2.4,8.91-7.99"/>
      <path class="cls-11" d="M48.41,167.03c4.68-6.58,9.05-16.84,11.79-28.78,5.03-21.9,2.71-41.12-5.2-42.94l-18.23,79.3c3.6.83,7.73-2.09,11.64-7.58"/>
      <path class="cls-17" d="M39.64,118.33c26.79,7.73,54.76-7.7,62.48-34.47,7.72-26.76-7.74-54.72-34.52-62.45l-27.95,96.91Z"/>
      <g>
        <path class="cls-7" d="M5.98,158.89c3.15-2.01,6.97-5.73,10.53-10.53,6.53-8.8,9.73-17.89,7.14-20.29L0,159.94c1.18,1.09,3.35.62,5.98-1.06"/>
        <path class="cls-20" d="M23.15,131c4.54-4.02,9.58-10.93,13.8-19.45,7.75-15.63,9.85-30.77,4.68-33.83l-28.08,56.59c2.35,1.39,5.8.04,9.59-3.32"/>
        <path class="cls-7" d="M24.67,146.02c2.99-2.24,6.51-6.25,9.69-11.3,5.84-9.28,8.32-18.58,5.56-20.78l-21.13,33.6c1.26,1,3.39.36,5.88-1.51"/>
        <path class="cls-18" d="M33.04,128.42c3.28-3.62,6.73-9.57,9.41-16.73,4.92-13.13,5.39-25.35,1.05-27.28l-17.8,47.55c1.97.88,4.6-.52,7.34-3.54"/>
        <path class="cls-19" d="M37.9,128.23c2.54-3.6,5.19-9.29,7.24-15.97,3.76-12.25,4.06-23.19.67-24.43l-13.61,44.38c1.54.56,3.58-.98,5.7-3.98"/>
        <path class="cls-12" d="M20.27,144.8c3.34-3.17,7.04-8.61,10.14-15.32,5.7-12.31,7.24-24.25,3.44-26.66l-20.63,44.6c1.73,1.1,4.26.03,7.05-2.61"/>
        <path class="cls-1" d="M42.38,126.9c3.07-3.15,6.59-8.36,9.66-14.63,5.64-11.51,7.65-22.27,4.5-24.02l-20.42,41.69c1.43.8,3.69-.4,6.25-3.03"/>
      </g>
      <g>
        <path class="cls-5" d="M32.07,108.63c6.27-5.09,13.22-13.81,19.05-24.58,10.7-19.76,13.59-38.9,6.46-42.77L18.83,112.82c3.24,1.76,8,.05,13.24-4.19"/>
        <path class="cls-21" d="M45.72,105.36c4.53-4.58,9.29-12.1,12.99-21.15,6.79-16.6,7.43-32.04,1.45-34.49l-24.57,60.12c2.72,1.11,6.35-.65,10.13-4.47"/>
        <path class="cls-10" d="M52.44,105.13c3.5-4.55,7.17-11.74,9.99-20.19,5.19-15.49,5.6-29.32.92-30.89l-18.78,56.11c2.13.71,4.94-1.24,7.87-5.03"/>
        <path class="cls-6" d="M61.05,103.9c3.5-4.55,7.17-11.74,9.99-20.19,5.19-15.49,5.6-29.32.92-30.89l-18.78,56.11c2.13.71,4.94-1.24,7.87-5.03"/>
      </g>
      <path class="cls-13" d="M41.02,62.53c10.31,7.43,24.68,5.11,32.1-5.19,7.42-10.3,5.09-24.67-5.22-32.1l-26.88,37.29Z"/>
      <path class="cls-10" d="M59.31,69.73c12.01,4.13,25.1-2.24,29.23-14.24,4.13-12-2.26-25.08-14.27-29.22l-14.96,43.46Z"/>
      <path class="cls-16" d="M97.08,70.74c11.79-4.74,17.5-18.13,12.76-29.91-4.74-11.78-18.13-17.48-29.92-12.74l17.16,42.64Z"/>
      <circle class="cls-4" cx="105.18" cy="11.18" r="5.48"/>
      <ellipse class="cls-8" cx="105.13" cy="11.16" rx="3.5" ry="3.57"/>
      <path class="cls-14" d="M120.52,32.47c5.35,0,9.7-4.34,9.7-9.69s-4.34-9.69-9.7-9.69v19.37Z"/>
      <path class="cls-5" d="M107.28,34.37c3.79,3.79,9.92,3.79,13.7,0,3.78-3.78,3.78-9.92,0-13.7l-13.7,13.7Z"/>
      <path class="cls-15" d="M71.87,74.21c12.29,3.22,24.86-4.12,28.08-16.39,3.22-12.28-4.13-24.84-16.42-28.07l-11.66,44.46Z"/>
      <path class="cls-3" d="M52.02,42.41c6.55,4.72,15.67,3.24,20.39-3.3,4.71-6.54,3.23-15.67-3.32-20.39l-17.07,23.68Z"/>
      <path class="cls-17" d="M63.27,47.36c7.63,2.63,15.94-1.42,18.57-9.05,2.62-7.62-1.43-15.93-9.06-18.56l-9.5,27.61Z"/>
      <path class="cls-18" d="M87.26,48c7.49-3.01,11.12-11.52,8.11-19-3.01-7.48-11.52-11.1-19-8.09l10.9,27.09Z"/>
      <path class="cls-10" d="M71.25,50.2c7.81,2.05,15.79-2.61,17.84-10.41,2.05-7.8-2.62-15.78-10.43-17.83l-7.41,28.24Z"/>
      <path class="cls-16" d="M90.01,35.91c3.54-4.65,1.57-12.11-4.41-16.66s-13.69-4.46-17.23.19l21.64,16.47Z"/>
    </g>
  </g>
</svg>