<?xml version="1.0" encoding="UTF-8"?>
<svg id="Layer_1" xmlns="http://www.w3.org/2000/svg" version="1.1" viewBox="0 0 357.75 289.43">
  <!-- Generator: Adobe Illustrator 29.2.1, SVG Export Plug-In . SVG Version: 2.1.0 Build 116)  -->
  <defs>
    <style>
      .st0 {
        fill: #f08921;
      }

      .st1 {
        fill: #3f1d57;
      }

      .st2 {
        stroke: #009db3;
        stroke-linecap: round;
        stroke-linejoin: round;
        stroke-width: 4.13px;
      }

      .st2, .st3 {
        fill: #622599;
      }

      .st4 {
        fill: #c72528;
      }

      .st5 {
        fill: #2675b7;
      }

      .st6 {
        fill: #f499c1;
      }

      .st7 {
        fill: #fdd01f;
      }

      .st8 {
        fill: #fac49e;
      }

      .st9 {
        fill: #c97e29;
      }

      .st10 {
        fill: #a81f24;
      }

      .st11 {
        fill: #0094b4;
      }

      .st12 {
        fill: #fff;
      }

      .st13 {
        fill: #fbe056;
      }

      .st14 {
        fill: #f15857;
      }

      .st15 {
        fill: #84d0d9;
      }

      .st16 {
        fill: #e34d4c;
      }

      .st17 {
        fill: #4bc2e8;
      }

      .st18 {
        fill: #96d2dc;
      }

      .st19 {
        display: none;
        fill: #f05b5b;
      }

      .st20 {
        fill: #2476b8;
      }

      .st21 {
        fill: #009db3;
      }

      .st22 {
        fill: #fcb813;
      }

      .st23 {
        fill: #ffc30c;
      }
    </style>
  </defs>
  <g>
    <path class="st4" d="M159.91,52.65c0-16.31-13.21-29.54-29.51-29.54s-29.51,13.22-29.51,29.54h59.02Z"/>
    <path class="st10" d="M46.3,263.15c5.49-9.6,11.94-24.3,17.76-41.17,10.68-30.94,15.21-57.45,10.11-59.21l-38.68,112.06c2.32.8,6.23-3.66,10.81-11.67"/>
    <path class="st15" d="M67,197.91c5.12-6.24,10.17-16.19,13.71-27.92,6.5-21.51,5.48-40.84-2.29-43.19l-23.55,77.88c3.53,1.07,7.85-1.56,12.12-6.77"/>
    <path class="st16" d="M65.83,238.51c4.02-6.7,8.27-17.04,11.62-28.95,6.14-21.86,6.91-40.77,1.72-42.23l-22.25,79.17c2.36.66,5.55-2.4,8.91-7.99"/>
    <path class="st17" d="M82.76,190.15c4.68-6.58,9.05-16.84,11.79-28.78,5.03-21.9,2.71-41.12-5.2-42.94l-18.23,79.3c3.6.83,7.73-2.09,11.64-7.58"/>
    <path class="st11" d="M73.98,141.45c26.79,7.73,54.76-7.7,62.48-34.47,7.72-26.76-7.74-54.72-34.52-62.45l-27.95,96.91Z"/>
    <g>
      <path class="st9" d="M40.33,182.01c3.15-2.01,6.97-5.73,10.53-10.53,6.53-8.8,9.73-17.89,7.14-20.29l-23.65,31.88c1.18,1.09,3.35.62,5.98-1.06"/>
      <path class="st13" d="M57.49,154.11c4.54-4.02,9.58-10.93,13.8-19.45,7.75-15.63,9.85-30.77,4.68-33.83l-28.08,56.59c2.35,1.39,5.8.04,9.59-3.32"/>
      <path class="st9" d="M59.02,169.14c2.99-2.24,6.51-6.25,9.69-11.3,5.84-9.28,8.32-18.58,5.56-20.78l-21.13,33.6c1.26,1,3.39.36,5.88-1.51"/>
      <path class="st23" d="M67.39,151.53c3.28-3.62,6.73-9.57,9.41-16.73,4.92-13.13,5.39-25.35,1.05-27.28l-17.8,47.55c1.97.88,4.6-.52,7.34-3.54"/>
      <path class="st4" d="M72.25,151.35c2.54-3.6,5.19-9.29,7.24-15.97,3.76-12.25,4.06-23.19.67-24.43l-13.61,44.38c1.54.56,3.58-.98,5.7-3.98"/>
      <path class="st22" d="M54.62,167.92c3.34-3.17,7.04-8.61,10.14-15.32,5.7-12.31,7.24-24.25,3.44-26.66l-20.63,44.6c1.73,1.1,4.26.03,7.05-2.61"/>
      <path class="st7" d="M76.73,150.02c3.07-3.15,6.59-8.36,9.66-14.63,5.64-11.51,7.65-22.27,4.5-24.02l-20.42,41.69c1.43.8,3.69-.4,6.25-3.03"/>
    </g>
    <g>
      <path class="st3" d="M66.42,131.74c6.27-5.09,13.22-13.81,19.05-24.58,10.7-19.76,13.59-38.9,6.46-42.77l-38.75,71.54c3.24,1.76,8,.05,13.24-4.19"/>
      <path class="st5" d="M80.07,128.48c4.53-4.58,9.29-12.1,12.99-21.15,6.79-16.6,7.43-32.04,1.45-34.49l-24.57,60.12c2.72,1.11,6.35-.65,10.13-4.47"/>
      <path class="st0" d="M86.79,128.24c3.5-4.55,7.17-11.74,9.99-20.19,5.19-15.49,5.6-29.32.92-30.89l-18.78,56.11c2.13.71,4.94-1.24,7.87-5.03"/>
      <path class="st19" d="M37.9,306.44c5.06-8.39,10.89-21.31,16.01-36.19,9.4-27.3,12.88-50.85,7.78-52.61l-34.04,98.86c2.32.8,6.02-3.05,10.24-10.05"/>
      <path class="st21" d="M95.39,127.02c3.5-4.55,7.17-11.74,9.99-20.19,5.19-15.49,5.6-29.32.92-30.89l-18.78,56.11c2.13.71,4.94-1.24,7.87-5.03"/>
    </g>
    <path class="st20" d="M75.37,85.64c10.31,7.43,24.68,5.11,32.1-5.19,7.42-10.3,5.09-24.67-5.22-32.1l-26.88,37.29Z"/>
    <path class="st0" d="M93.66,92.85c12.01,4.13,25.1-2.24,29.23-14.24,4.13-12-2.26-25.08-14.27-29.22l-14.96,43.46Z"/>
    <path class="st14" d="M131.43,93.86c11.79-4.74,17.5-18.13,12.76-29.91-4.74-11.78-18.13-17.48-29.92-12.74l17.16,42.64Z"/>
    <circle class="st12" cx="139.53" cy="34.3" r="5.48"/>
    <ellipse class="st1" cx="139.47" cy="34.28" rx="3.5" ry="3.57"/>
    <path class="st8" d="M154.87,55.59c5.35,0,9.7-4.34,9.7-9.69s-4.34-9.69-9.7-9.69v19.37Z"/>
    <path class="st3" d="M141.63,57.49c3.79,3.79,9.92,3.79,13.7,0,3.78-3.78,3.78-9.92,0-13.7l-13.7,13.7Z"/>
    <path class="st18" d="M106.22,97.33c12.29,3.22,24.86-4.12,28.08-16.39,3.22-12.28-4.13-24.84-16.42-28.07l-11.66,44.46Z"/>
    <path class="st15" d="M86.37,65.53c6.55,4.72,15.67,3.24,20.39-3.3,4.71-6.54,3.23-15.67-3.32-20.39l-17.07,23.68Z"/>
    <path class="st11" d="M97.62,70.48c7.63,2.63,15.94-1.42,18.57-9.05,2.62-7.62-1.43-15.93-9.06-18.56l-9.5,27.61Z"/>
    <path class="st23" d="M121.61,71.12c7.49-3.01,11.12-11.52,8.11-19-3.01-7.48-11.52-11.1-19-8.09l10.9,27.09Z"/>
    <path class="st0" d="M105.59,73.32c7.81,2.05,15.79-2.61,17.84-10.41,2.05-7.8-2.62-15.78-10.43-17.83l-7.41,28.24Z"/>
    <path class="st14" d="M124.36,59.03c3.54-4.65,1.57-12.11-4.41-16.66s-13.69-4.46-17.23.19l21.64,16.47Z"/>
  </g>
  <g>
    <g>
      <circle class="st3" cx="209.55" cy="70.29" r="28.67"/>
      <path class="st12" d="M199.72,79.52c.75.5,1.6.7,2.42.48,1.01-.28,1.72-1.13,2.06-2.25h1.67c-.45,3.36-2.05,4.9-3.75,4.9-1.96,0-2.93-1.7-2.4-3.13ZM214.2,83.99c-1.4-1.77-2.12-3.76-2.37-6.24h-1.68c-.08,3.2-.27,4.94-.6,6.68-.34-1.74-.52-3.48-.6-6.68h-1.68c-.25,2.48-.97,4.46-2.37,6.24,0,0,1.95,2.29,4.65,3.65,2.7-1.36,4.65-3.65,4.65-3.65ZM216.98,82.66c1.96,0,2.93-1.7,2.4-3.13-.75.5-1.6.7-2.42.48-1.01-.28-1.72-1.13-2.06-2.25h-1.67c.45,3.36,2.05,4.9,3.75,4.9ZM197.84,75.94c-2.86-.31-5.09-2.72-5.09-5.65,0-3.14,2.56-5.68,5.72-5.68,4.39,0,7.26,4.72,7.51,10.35h1.38c-.23-6.5-3.71-9.03-3.71-13.33,0-4.66,4.79-8.86,5.9-9.97,1.11,1.1,5.9,5.3,5.9,9.97,0,4.31-3.48,6.84-3.71,13.33h1.38c.25-5.63,3.11-10.35,7.51-10.35,3.16,0,5.72,2.54,5.72,5.68,0,2.93-2.23,5.34-5.09,5.65,1.06-2.13.14-4.31-1.94-4.73-1.84-.37-3.98.92-4.53,3.75h1.74c.17.23.28.51.28.82s-.12.6-.28.82h-13.97c-.17-.23-.28-.51-.28-.82s.12-.6.28-.82h1.74c-.55-2.83-2.69-4.11-4.53-3.75-2.08.41-3,2.59-1.94,4.73ZM220.66,68.47l-1.25,1.23,1.74-.28.8,1.56.27-1.73,1.74-.27-1.57-.79.28-1.73-1.24,1.24-1.57-.8.8,1.56ZM208.89,71.61c0,1.24,0,2.35.01,3.35h1.3c0-1,.01-2.11.01-3.35,0-7.49-.13-12.41-.66-14.91-.53,2.5-.66,7.42-.66,14.91ZM197.95,69.43l1.74.28-1.25-1.23.8-1.56-1.57.8-1.24-1.24.28,1.73-1.57.79,1.74.27.27,1.73.79-1.56ZM204.61,93.19c0-1.23.99-2.23,2.21-2.27.76-.03,1.46-.28,2.02-.59-.59-.33-1.26-.63-1.96-.63-1.92,0-3.48,1.56-3.48,3.48s1.56,3.48,3.48,3.48c.69,0,1.37-.3,1.96-.63-.56-.3-1.26-.55-2.02-.59-1.22-.03-2.21-1.03-2.21-2.27ZM205.34,92.82c.24.02.54.03.91.03,1.46,0,2.82-.4,4.17-1.22,1.26-.76,1.45-.7,2.53-.7.55,0,1.17-.01,1.79-.12-.64-.67-1.53-1.09-2.52-1.09s-1.37.33-3.05,1.23c-.71.38-1.53.64-2.33.67-.73.02-1.34.54-1.49,1.21ZM210.42,94.75c-1.35-.82-2.71-1.22-4.17-1.22-.37,0-.67.01-.91.03.16.67.77,1.18,1.49,1.21.79.03,1.62.29,2.33.67,1.69.9,2.1,1.23,3.05,1.23s1.89-.42,2.52-1.09c-.62-.1-1.24-.12-1.79-.12-1.09,0-1.27.06-2.53-.7ZM225.88,53.96c-4.36-4.36-10.16-6.76-16.33-6.76s-11.96,2.4-16.33,6.76-6.76,10.16-6.76,16.33,2.4,11.96,6.76,16.33c2.72,2.72,5.99,4.67,9.57,5.76.08-.41.22-.8.41-1.15-3.41-1.03-6.53-2.89-9.11-5.47-4.13-4.13-6.4-9.62-6.4-15.46s2.27-11.33,6.4-15.46c4.13-4.13,9.62-6.4,15.46-6.4s11.33,2.27,15.46,6.4c4.13,4.13,6.4,9.62,6.4,15.46s-2.27,11.33-6.4,15.46c-2.55,2.55-5.81,4.47-8.97,5.43-.44.13-1.27.43-3.09.43-.52,0-.91-.03-1.2.09-.42.13-1.33.76-1.91,1.01.58.07,1.68.1,2.73.09,2.3.01,3.85-.46,3.85-.46,3.53-1.1,6.76-3.04,9.45-5.73,4.36-4.36,6.76-10.16,6.76-16.33s-2.4-11.96-6.76-16.33ZM200.25,94.94c-.25.22.29,1.22.52,1.1.43-.2,1.55-.64,2.43-.89-.19-.36-.33-.75-.41-1.15-.34.1-1.79.57-2.54.94ZM218.76,94.9c-.76-.33-1.54-.62-2.33-.86,0,0-1.56-.48-3.85-.46-1.05,0-2.15.02-2.73.09.58.26,1.49.88,1.91,1.01.29.12.68.09,1.2.09,1.82,0,2.65.29,3.09.43.74.22,1.48.5,2.22.83.24.12.83-.97.5-1.12Z"/>
    </g>
    <g>
      <g>
        <g>
          <g>
            <path class="st22" d="M300.12,114.99c1.27,1.1,2.17,2.68,2.71,4.75l1.02,3.99c.32,1.17.78,2.03,1.39,2.58.61.55,1.41.82,2.41.82,1.1,0,1.99-.37,2.69-1.1.69-.73,1.04-1.72,1.04-2.96s-.34-2.34-1.02-3.14c-.68-.8-1.71-1.21-3.07-1.21v-5.26c1.83,0,3.4.43,4.72,1.28,1.32.85,2.32,2,3,3.45.68,1.45,1.02,3.08,1.02,4.88s-.34,3.3-1.02,4.72c-.68,1.41-1.65,2.53-2.91,3.36-1.26.83-2.72,1.24-4.41,1.24-1.95,0-3.63-.58-5.05-1.74-1.41-1.16-2.36-2.64-2.85-4.44l-1.35-4.94c-.27-.93-.62-1.59-1.06-1.99-.44-.4-1.04-.6-1.79-.6h-.95v13.42h-4.79v-18.76h4.94c2.29,0,4.07.55,5.34,1.65Z"/>
            <path class="st22" d="M292.66,137.29c2.27-1.8,5.59-2.71,9.98-2.71s7.71.9,9.98,2.71c2.27,1.8,3.4,4.48,3.4,8.04s-1.13,6.24-3.4,8.04c-2.27,1.8-5.59,2.71-9.98,2.71s-7.71-.9-9.98-2.71c-2.27-1.8-3.4-4.48-3.4-8.04s1.13-6.24,3.4-8.04ZM295.93,149.47c1.43.88,3.66,1.32,6.71,1.32s5.28-.44,6.71-1.32c1.43-.88,2.14-2.25,2.14-4.13s-.71-3.25-2.14-4.13c-1.43-.88-3.66-1.32-6.71-1.32s-5.28.44-6.71,1.32c-1.43.88-2.14,2.25-2.14,4.13s.71,3.25,2.14,4.13Z"/>
            <path class="st22" d="M300.12,158.53c1.27,1.1,2.17,2.68,2.71,4.75l1.02,3.99c.32,1.17.78,2.03,1.39,2.58.61.55,1.41.82,2.41.82,1.1,0,1.99-.37,2.69-1.1.69-.73,1.04-1.72,1.04-2.96s-.34-2.34-1.02-3.14c-.68-.8-1.71-1.21-3.07-1.21v-5.26c1.83,0,3.4.43,4.72,1.28,1.32.85,2.32,2,3,3.45.68,1.45,1.02,3.08,1.02,4.88s-.34,3.3-1.02,4.72c-.68,1.41-1.65,2.53-2.91,3.36-1.26.83-2.72,1.24-4.41,1.24-1.95,0-3.63-.58-5.05-1.74-1.41-1.16-2.36-2.64-2.85-4.44l-1.35-4.94c-.27-.93-.62-1.59-1.06-1.99-.44-.4-1.04-.6-1.79-.6h-.95v13.42h-4.79v-18.76h4.94c2.29,0,4.07.55,5.34,1.65Z"/>
            <path class="st22" d="M291.23,179.68c1.32-1.67,3.06-2.61,5.23-2.83v5.45c-.73.19-1.34.67-1.83,1.43-.49.75-.73,1.69-.73,2.81,0,1.32.38,2.38,1.13,3.18.75.8,1.74,1.21,2.96,1.21s2.14-.38,2.85-1.15c.71-.77,1.06-1.86,1.06-3.27v-8.59h13.53v17.04h-4.79v-11.92h-4.1v4.42c0,1.71-.35,3.22-1.06,4.55-.71,1.33-1.69,2.36-2.96,3.11-1.27.74-2.73,1.11-4.39,1.11s-3.27-.41-4.61-1.22c-1.34-.82-2.39-1.97-3.14-3.45-.76-1.49-1.13-3.22-1.13-5.19,0-2.78.66-5,1.97-6.67Z"/>
          </g>
          <g>
            <g>
              <path class="st21" d="M144.79,132.97h6.97c1.32,0,2.3-.41,2.93-1.24.63-.83.95-2.12.95-3.87v-20.91h6.2v20.91c0,2.76-.34,4.97-1.01,6.61-.67,1.64-1.74,2.84-3.21,3.59-1.46.75-3.42,1.13-5.85,1.13h-6.97v-6.22Z"/>
              <path class="st21" d="M165.71,130.45c-1.19-.98-1.78-2.32-1.78-4.02s.56-3.11,1.69-4.16c1.13-1.05,2.76-1.57,4.91-1.57h4.12v-.49c0-.63-.17-1.09-.52-1.38-.35-.29-.9-.44-1.64-.44h-6.85v-4.26h6.85c2.14,0,3.81.51,4.99,1.52,1.19,1.01,1.78,2.44,1.78,4.28v7.09c0,.33.16.49.49.49h1.54v3.88h-3.49c-.61,0-1.09-.15-1.45-.45-.36-.3-.55-.72-.58-1.26-.49.7-1.19,1.25-2.11,1.64-.92.4-1.96.59-3.13.59-2.03,0-3.63-.49-4.82-1.47ZM170.6,127.52c.42.3,1.01.45,1.78.45,1.02,0,1.86-.27,2.5-.8.64-.54.96-1.3.96-2.3v-.28h-3.84c-.65,0-1.15.16-1.5.47s-.52.7-.52,1.17c0,.56.21.99.63,1.29Z"/>
              <path class="st21" d="M183.17,114.14h4.3v1.64c.98-1.44,2.42-2.17,4.33-2.17,1.07,0,2,.23,2.78.68.78.45,1.4,1.11,1.87,1.97,1.16-1.77,2.79-2.65,4.89-2.65s3.56.61,4.68,1.83,1.68,2.93,1.68,5.12v10.83h-4.89v-10.48c0-.95-.21-1.68-.63-2.17s-1.02-.73-1.82-.73-1.37.27-1.82.82c-.44.55-.66,1.29-.66,2.22v10.34h-4.89v-10.48c0-.95-.2-1.68-.61-2.17-.41-.49-1.01-.73-1.8-.73s-1.38.27-1.83.82c-.45.55-.68,1.29-.68,2.22v10.34h-4.89v-17.25Z"/>
              <path class="st21" d="M216.78,130.54c-1.69-.94-3-2.37-3.95-4.28-.94-1.91-1.41-4.26-1.41-7.06,0-4.19,1.01-7.38,3.04-9.55,2.03-2.18,4.78-3.27,8.28-3.27,2.77,0,5.05.75,6.85,2.25,1.79,1.5,2.86,3.67,3.21,6.51h-5.2c-.21-1.33-.76-2.33-1.64-3.02-.89-.69-1.96-1.03-3.21-1.03-4.07,0-6.11,2.69-6.11,8.07,0,2.77.55,4.81,1.64,6.11,1.09,1.3,2.55,1.96,4.37,1.96,1.35,0,2.46-.38,3.32-1.15.86-.77,1.4-1.85,1.61-3.25h5.2c-.42,2.84-1.51,5.07-3.28,6.69-1.77,1.62-4.05,2.43-6.85,2.43-2.21,0-4.16-.47-5.85-1.41Z"/>
              <path class="st21" d="M235.48,130.45c-1.19-.98-1.78-2.32-1.78-4.02s.56-3.11,1.69-4.16c1.13-1.05,2.76-1.57,4.91-1.57h4.12v-.49c0-.63-.17-1.09-.52-1.38-.35-.29-.9-.44-1.64-.44h-6.85v-4.26h6.85c2.14,0,3.81.51,4.99,1.52,1.19,1.01,1.78,2.44,1.78,4.28v7.09c0,.33.16.49.49.49h1.54v3.88h-3.49c-.61,0-1.09-.15-1.45-.45-.36-.3-.55-.72-.58-1.26-.49.7-1.19,1.25-2.11,1.64-.92.4-1.96.59-3.13.59-2.03,0-3.63-.49-4.82-1.47ZM239.18,127.52c.42.3,1.01.45,1.78.45,1.02,0,1.86-.27,2.5-.8.64-.54.96-1.3.96-2.3v-.28h-3.84c-.65,0-1.15.16-1.5.47s-.52.7-.52,1.17c0,.56.21.99.63,1.29Z"/>
              <path class="st21" d="M252.94,114.14h4.3v1.64c.98-1.44,2.42-2.17,4.33-2.17,1.07,0,2,.23,2.78.68.78.45,1.4,1.11,1.87,1.97,1.16-1.77,2.79-2.65,4.89-2.65s3.56.61,4.68,1.83,1.68,2.93,1.68,5.12v10.83h-4.89v-10.48c0-.95-.21-1.68-.63-2.17s-1.02-.73-1.82-.73-1.37.27-1.82.82c-.44.55-.66,1.29-.66,2.22v10.34h-4.89v-10.48c0-.95-.2-1.68-.61-2.17-.41-.49-1.01-.73-1.8-.73s-1.38.27-1.83.82c-.45.55-.68,1.29-.68,2.22v10.34h-4.89v-17.25Z"/>
            </g>
            <g>
              <path class="st14" d="M181.08,152.82c-1.1-.62-1.96-1.55-2.58-2.79-.62-1.25-.92-2.78-.92-4.61,0-2.74.66-4.82,1.99-6.24s3.13-2.13,5.41-2.13c1.81,0,3.3.49,4.47,1.47,1.17.98,1.87,2.4,2.1,4.26h-3.4c-.14-.87-.49-1.52-1.07-1.97-.58-.45-1.28-.67-2.1-.67-2.66,0-3.99,1.76-3.99,5.27,0,1.81.36,3.14,1.07,3.99.71.85,1.67,1.28,2.85,1.28.88,0,1.6-.25,2.17-.75.56-.5.91-1.21,1.05-2.12h3.4c-.27,1.86-.99,3.31-2.14,4.37s-2.65,1.59-4.47,1.59c-1.45,0-2.72-.31-3.82-.92Z"/>
              <path class="st14" d="M195.84,152.98c-.91-.49-1.61-1.19-2.11-2.1-.5-.9-.75-1.95-.75-3.14s.25-2.21.75-3.11c.5-.9,1.21-1.61,2.11-2.11s1.94-.75,3.09-.75,2.19.25,3.09.75,1.61,1.21,2.11,2.11c.5.91.75,1.94.75,3.11s-.25,2.23-.75,3.14c-.5.91-1.21,1.61-2.11,2.1s-1.94.74-3.09.74-2.19-.25-3.09-.74ZM200.86,149.99c.49-.57.74-1.32.74-2.25s-.25-1.68-.74-2.25c-.49-.57-1.14-.86-1.93-.86s-1.43.29-1.93.86c-.49.57-.74,1.32-.74,2.25s.25,1.68.74,2.25c.49.57,1.14.86,1.93.86s1.43-.29,1.93-.86Z"/>
              <path class="st14" d="M207.84,152.83c-.4-.37-.6-.97-.6-1.8v-13.62h3.19v12.48c0,.24.05.42.16.54.11.11.29.17.55.17h1.23v2.78h-2.6c-.88,0-1.53-.18-1.93-.55Z"/>
              <path class="st14" d="M216.26,152.98c-.91-.49-1.61-1.19-2.11-2.1-.5-.9-.75-1.95-.75-3.14s.25-2.21.75-3.11c.5-.9,1.21-1.61,2.11-2.11s1.94-.75,3.09-.75,2.19.25,3.09.75,1.61,1.21,2.11,2.11c.5.91.75,1.94.75,3.11s-.25,2.23-.75,3.14c-.5.91-1.21,1.61-2.11,2.1s-1.94.74-3.09.74-2.19-.25-3.09-.74ZM221.28,149.99c.49-.57.74-1.32.74-2.25s-.25-1.68-.74-2.25c-.49-.57-1.14-.86-1.93-.86s-1.43.29-1.93.86c-.49.57-.74,1.32-.74,2.25s.25,1.68.74,2.25c.49.57,1.14.86,1.93.86s1.43-.29,1.93-.86Z"/>
              <path class="st14" d="M227.68,142.11h2.81v1.07c.64-.94,1.58-1.41,2.83-1.41.7,0,1.3.15,1.81.45.51.3.92.73,1.22,1.29.76-1.16,1.83-1.73,3.19-1.73s2.33.4,3.06,1.2c.73.8,1.1,1.91,1.1,3.34v7.07h-3.19v-6.84c0-.62-.14-1.1-.41-1.41s-.67-.48-1.19-.48-.9.18-1.19.54c-.29.36-.43.84-.43,1.45v6.75h-3.19v-6.84c0-.62-.13-1.1-.4-1.41s-.66-.48-1.18-.48-.9.18-1.2.54c-.3.36-.45.84-.45,1.45v6.75h-3.19v-11.27Z"/>
              <path class="st14" d="M250.85,153.34c-.62-.25-1.11-.6-1.47-1.06v1.1h-2.81v-15.97h3.19v5.57c.33-.38.78-.68,1.32-.89.55-.21,1.14-.32,1.78-.32,1.06,0,2,.25,2.82.74.81.49,1.45,1.19,1.9,2.1s.68,1.95.68,3.14-.23,2.23-.68,3.14c-.46.91-1.09,1.61-1.9,2.1-.81.49-1.75.74-2.82.74-.73,0-1.4-.13-2.02-.38ZM254.26,149.99c.49-.57.73-1.32.73-2.25s-.24-1.68-.73-2.25-1.13-.86-1.92-.86-1.43.29-1.9.86c-.48.57-.72,1.32-.72,2.25s.24,1.68.72,2.25c.48.57,1.11.86,1.9.86s1.43-.29,1.92-.86Z"/>
              <path class="st14" d="M260.65,137.45h3.35v2.97h-3.35v-2.97ZM260.74,142.11h3.19v11.27h-3.19v-11.27Z"/>
              <path class="st14" d="M267.29,152.76c-.78-.64-1.16-1.51-1.16-2.62s.37-2.03,1.11-2.71c.74-.69,1.81-1.03,3.21-1.03h2.69v-.32c0-.41-.11-.71-.34-.9-.23-.19-.59-.29-1.07-.29h-4.47v-2.78h4.47c1.4,0,2.49.33,3.26.99.78.66,1.16,1.59,1.16,2.79v4.63c0,.21.11.32.32.32h1v2.53h-2.28c-.4,0-.71-.1-.95-.3s-.36-.47-.38-.82c-.32.46-.78.81-1.38,1.07-.6.26-1.28.39-2.04.39-1.32,0-2.37-.32-3.15-.96ZM269.7,150.84c.27.2.66.3,1.16.3.67,0,1.21-.17,1.63-.52.42-.35.63-.85.63-1.51v-.18h-2.51c-.43,0-.75.1-.98.31-.23.21-.34.46-.34.76,0,.36.14.65.41.84Z"/>
            </g>
          </g>
        </g>
        <g>
          <polygon class="st6" points="138.09 196.23 96.08 196.23 117.09 156.72 138.09 196.23"/>
          <polygon class="st14" points="225.61 196.23 225.61 196.19 241.59 160.69 273.54 160.69 289.51 196.21 225.61 196.23"/>
          <polygon class="st11" points="126.91 196.23 129.65 182.67 157.14 156.81 185.03 182.95 187.4 196.23 126.91 196.23"/>
          <g>
            <path class="st3" d="M191.49,178.55c2.73-6.03,7.12-10.7,11.92-13.14-14.41,2.86-25.28,15.57-25.28,30.82h11.42c-1.38-5.22-.79-11.62,1.94-17.67Z"/>
            <path class="st3" d="M216.11,166.99c.44,12.71-13.12,15.16-17.52,29.24h4.76c4.66-6.93,13.69-11.9,14.63-25.81.13-2,2.55-2.93,3.99-1.55,5.42,5.21,6.66,15.26,2.83,24.69-.38.92-.8,1.81-1.25,2.67h17.43c0-15.27-10.89-27.99-25.33-30.83.28.48.45,1.02.46,1.59Z"/>
          </g>
        </g>
      </g>
      <g>
        <line class="st2" x1="84.4" y1="222.85" x2="99.6" y2="207.62"/>
        <line class="st2" x1="99.6" y1="222.85" x2="114.79" y2="207.62"/>
        <line class="st2" x1="99.6" y1="207.62" x2="99.6" y2="222.85"/>
        <line class="st2" x1="114.79" y1="222.85" x2="129.99" y2="207.62"/>
        <line class="st2" x1="114.79" y1="207.62" x2="114.79" y2="222.85"/>
        <line class="st2" x1="129.99" y1="222.85" x2="145.19" y2="207.62"/>
        <line class="st2" x1="129.99" y1="207.62" x2="129.99" y2="222.85"/>
        <line class="st2" x1="145.19" y1="222.85" x2="160.38" y2="207.62"/>
        <line class="st2" x1="145.19" y1="207.62" x2="145.19" y2="222.85"/>
        <line class="st2" x1="160.38" y1="222.85" x2="175.58" y2="207.62"/>
        <line class="st2" x1="160.38" y1="207.62" x2="160.38" y2="222.85"/>
        <line class="st2" x1="175.58" y1="222.85" x2="190.78" y2="207.62"/>
        <line class="st2" x1="175.58" y1="207.62" x2="175.58" y2="222.85"/>
        <line class="st2" x1="190.78" y1="222.85" x2="205.97" y2="207.62"/>
        <line class="st2" x1="190.78" y1="207.62" x2="190.78" y2="222.85"/>
        <line class="st2" x1="205.97" y1="222.85" x2="221.17" y2="207.62"/>
        <line class="st2" x1="205.97" y1="207.62" x2="205.97" y2="222.85"/>
        <line class="st2" x1="221.17" y1="222.85" x2="236.37" y2="207.62"/>
        <line class="st2" x1="221.17" y1="207.62" x2="221.17" y2="222.85"/>
        <line class="st2" x1="236.37" y1="222.85" x2="251.57" y2="207.62"/>
        <line class="st2" x1="236.37" y1="207.62" x2="236.37" y2="222.85"/>
        <line class="st2" x1="251.57" y1="222.85" x2="266.76" y2="207.62"/>
        <line class="st2" x1="251.57" y1="207.62" x2="251.57" y2="222.85"/>
        <line class="st2" x1="266.76" y1="222.85" x2="281.96" y2="207.62"/>
        <line class="st2" x1="266.76" y1="207.62" x2="266.76" y2="222.85"/>
        <line class="st2" x1="281.96" y1="222.85" x2="297.16" y2="207.62"/>
        <line class="st2" x1="281.96" y1="207.62" x2="281.96" y2="222.85"/>
        <line class="st2" x1="297.16" y1="222.85" x2="312.35" y2="207.62"/>
        <line class="st2" x1="297.16" y1="207.62" x2="297.16" y2="222.85"/>
      </g>
    </g>
  </g>
</svg>